<mxfile host="app.diagrams.net" modified="2024-05-14T01:15:40.633Z" agent="Mozilla/5.0 (Windows NT 10.0; Win64; x64) AppleWebKit/537.36 (KHTML, like Gecko) Chrome/124.0.0.0 Safari/537.36" etag="UD8TWckxfmDrkrMsKMVv" version="24.4.0" type="device">
  <diagram name="EXERCISE-1" id="7WXvErT6jwQCl5LBhXy7">
    <mxGraphModel dx="1035" dy="562" grid="1" gridSize="10" guides="1" tooltips="1" connect="1" arrows="1" fold="1" page="1" pageScale="1" pageWidth="850" pageHeight="1100" math="0" shadow="0">
      <root>
        <mxCell id="0" />
        <mxCell id="1" parent="0" />
        <mxCell id="-hOMn0kYKFU-R9jvK8EN-38" value="EXERCISE 9" style="text;html=1;align=center;verticalAlign=middle;resizable=0;points=[];autosize=1;strokeColor=none;fillColor=none;" parent="1" vertex="1">
          <mxGeometry x="338.5" width="90" height="30" as="geometry" />
        </mxCell>
        <mxCell id="jAzLcmatW34AS9ptDqRP-362" value="" style="edgeStyle=orthogonalEdgeStyle;rounded=0;orthogonalLoop=1;jettySize=auto;html=1;" edge="1" parent="1" source="jAzLcmatW34AS9ptDqRP-380" target="jAzLcmatW34AS9ptDqRP-365">
          <mxGeometry relative="1" as="geometry">
            <mxPoint x="384.0000000000001" y="75" as="sourcePoint" />
          </mxGeometry>
        </mxCell>
        <mxCell id="jAzLcmatW34AS9ptDqRP-364" value="" style="edgeStyle=orthogonalEdgeStyle;rounded=0;orthogonalLoop=1;jettySize=auto;html=1;" edge="1" parent="1" source="jAzLcmatW34AS9ptDqRP-365" target="jAzLcmatW34AS9ptDqRP-367">
          <mxGeometry relative="1" as="geometry" />
        </mxCell>
        <mxCell id="jAzLcmatW34AS9ptDqRP-365" value="s1, s2, s3, s4, s5" style="shape=parallelogram;perimeter=parallelogramPerimeter;whiteSpace=wrap;html=1;fixedSize=1;" vertex="1" parent="1">
          <mxGeometry x="324" y="105" width="120" height="30" as="geometry" />
        </mxCell>
        <mxCell id="jAzLcmatW34AS9ptDqRP-366" value="" style="edgeStyle=orthogonalEdgeStyle;rounded=0;orthogonalLoop=1;jettySize=auto;html=1;" edge="1" parent="1" source="jAzLcmatW34AS9ptDqRP-367" target="jAzLcmatW34AS9ptDqRP-370">
          <mxGeometry relative="1" as="geometry" />
        </mxCell>
        <mxCell id="jAzLcmatW34AS9ptDqRP-367" value="result" style="whiteSpace=wrap;html=1;" vertex="1" parent="1">
          <mxGeometry x="336" y="185" width="96" height="35" as="geometry" />
        </mxCell>
        <mxCell id="jAzLcmatW34AS9ptDqRP-368" value="" style="edgeStyle=orthogonalEdgeStyle;rounded=0;orthogonalLoop=1;jettySize=auto;html=1;" edge="1" parent="1" source="jAzLcmatW34AS9ptDqRP-370" target="jAzLcmatW34AS9ptDqRP-372">
          <mxGeometry relative="1" as="geometry" />
        </mxCell>
        <mxCell id="jAzLcmatW34AS9ptDqRP-369" value="" style="edgeStyle=orthogonalEdgeStyle;rounded=0;orthogonalLoop=1;jettySize=auto;html=1;" edge="1" parent="1" source="jAzLcmatW34AS9ptDqRP-370" target="jAzLcmatW34AS9ptDqRP-374">
          <mxGeometry relative="1" as="geometry" />
        </mxCell>
        <mxCell id="jAzLcmatW34AS9ptDqRP-370" value="s1[0]==s5[0] ?" style="rhombus;whiteSpace=wrap;html=1;" vertex="1" parent="1">
          <mxGeometry x="331" y="265" width="106" height="80" as="geometry" />
        </mxCell>
        <mxCell id="jAzLcmatW34AS9ptDqRP-371" value="" style="edgeStyle=orthogonalEdgeStyle;rounded=0;orthogonalLoop=1;jettySize=auto;html=1;entryX=1;entryY=0.5;entryDx=0;entryDy=0;" edge="1" parent="1" source="jAzLcmatW34AS9ptDqRP-372" target="jAzLcmatW34AS9ptDqRP-376">
          <mxGeometry relative="1" as="geometry">
            <mxPoint x="585" y="435" as="targetPoint" />
            <Array as="points">
              <mxPoint x="590" y="415" />
            </Array>
          </mxGeometry>
        </mxCell>
        <mxCell id="jAzLcmatW34AS9ptDqRP-372" value="&quot;Hemos encontrado algo!&quot;" style="shape=parallelogram;perimeter=parallelogramPerimeter;whiteSpace=wrap;html=1;fixedSize=1;" vertex="1" parent="1">
          <mxGeometry x="500" y="280" width="170" height="50" as="geometry" />
        </mxCell>
        <mxCell id="jAzLcmatW34AS9ptDqRP-373" value="" style="edgeStyle=orthogonalEdgeStyle;rounded=0;orthogonalLoop=1;jettySize=auto;html=1;" edge="1" parent="1" source="jAzLcmatW34AS9ptDqRP-374" target="jAzLcmatW34AS9ptDqRP-376">
          <mxGeometry relative="1" as="geometry">
            <mxPoint x="195" y="435" as="targetPoint" />
            <Array as="points">
              <mxPoint x="180" y="415" />
            </Array>
          </mxGeometry>
        </mxCell>
        <mxCell id="jAzLcmatW34AS9ptDqRP-374" value="&quot;Aun sin suerte&quot;" style="shape=parallelogram;perimeter=parallelogramPerimeter;whiteSpace=wrap;html=1;fixedSize=1;" vertex="1" parent="1">
          <mxGeometry x="110" y="280" width="170" height="50" as="geometry" />
        </mxCell>
        <mxCell id="jAzLcmatW34AS9ptDqRP-375" value="" style="edgeStyle=orthogonalEdgeStyle;rounded=0;orthogonalLoop=1;jettySize=auto;html=1;" edge="1" parent="1" source="jAzLcmatW34AS9ptDqRP-376">
          <mxGeometry relative="1" as="geometry">
            <mxPoint x="383.2352941176471" y="505" as="targetPoint" />
          </mxGeometry>
        </mxCell>
        <mxCell id="jAzLcmatW34AS9ptDqRP-376" value="&lt;div&gt;s1[0]+s2[0]+s3[0]+s4[0]+s5[0]&lt;span style=&quot;background-color: initial;&quot;&gt;,&lt;/span&gt;&lt;/div&gt;&lt;div&gt;&lt;span style=&quot;background-color: initial;&quot;&gt;result&lt;/span&gt;&lt;/div&gt;" style="shape=parallelogram;perimeter=parallelogramPerimeter;whiteSpace=wrap;html=1;fixedSize=1;" vertex="1" parent="1">
          <mxGeometry x="281" y="385" width="205" height="60" as="geometry" />
        </mxCell>
        <mxCell id="jAzLcmatW34AS9ptDqRP-378" value="SI" style="text;strokeColor=none;align=center;fillColor=none;html=1;verticalAlign=middle;whiteSpace=wrap;rounded=0;" vertex="1" parent="1">
          <mxGeometry x="440" y="275" width="60" height="30" as="geometry" />
        </mxCell>
        <mxCell id="jAzLcmatW34AS9ptDqRP-379" value="NO" style="text;strokeColor=none;align=center;fillColor=none;html=1;verticalAlign=middle;whiteSpace=wrap;rounded=0;" vertex="1" parent="1">
          <mxGeometry x="280" y="275" width="60" height="30" as="geometry" />
        </mxCell>
        <mxCell id="jAzLcmatW34AS9ptDqRP-382" value="" style="edgeStyle=orthogonalEdgeStyle;rounded=0;orthogonalLoop=1;jettySize=auto;html=1;" edge="1" parent="1" target="jAzLcmatW34AS9ptDqRP-380">
          <mxGeometry relative="1" as="geometry">
            <mxPoint x="384.0000000000001" y="75" as="sourcePoint" />
            <mxPoint x="384" y="105" as="targetPoint" />
          </mxGeometry>
        </mxCell>
        <mxCell id="jAzLcmatW34AS9ptDqRP-380" value="INICIO" style="ellipse;whiteSpace=wrap;html=1;aspect=fixed;" vertex="1" parent="1">
          <mxGeometry x="348.69" y="25" width="70.62" height="70.62" as="geometry" />
        </mxCell>
        <mxCell id="jAzLcmatW34AS9ptDqRP-384" value="" style="edgeStyle=orthogonalEdgeStyle;rounded=0;orthogonalLoop=1;jettySize=auto;html=1;" edge="1" parent="1" source="jAzLcmatW34AS9ptDqRP-383" target="jAzLcmatW34AS9ptDqRP-376">
          <mxGeometry relative="1" as="geometry" />
        </mxCell>
        <mxCell id="jAzLcmatW34AS9ptDqRP-383" value="FIN" style="ellipse;whiteSpace=wrap;html=1;aspect=fixed;" vertex="1" parent="1">
          <mxGeometry x="343.5" y="500" width="80" height="80" as="geometry" />
        </mxCell>
      </root>
    </mxGraphModel>
  </diagram>
</mxfile>
